<svg width="100%" height="100%" viewBox="0 0 482 456" version="1.1" xmlns="http://www.w3.org/2000/svg" xmlns:xlink="http://www.w3.org/1999/xlink" xml:space="preserve" xmlns:serif="http://www.serif.com/" style="fill-rule:evenodd;clip-rule:evenodd;stroke-linejoin:round;stroke-miterlimit:2;">
    <g transform="matrix(1,0,0,1,-124,0)">
        <g>
            <path d="M405.403,387.27C403.357,387.27 401.29,387.238 399.262,387.175L399.308,385.703C402.221,385.794 405.193,385.819 408.119,385.779L408.14,387.251C407.229,387.264 406.316,387.27 405.403,387.27ZM417.012,386.929L416.926,385.459C419.843,385.287 422.797,385.046 425.707,384.741L425.861,386.205C422.929,386.512 419.952,386.756 417.012,386.929ZM390.397,386.699C387.456,386.474 384.484,386.179 381.562,385.821L381.742,384.36C384.641,384.715 387.591,385.008 390.51,385.231L390.397,386.699ZM434.666,385.08L434.445,383.625C437.344,383.186 440.264,382.676 443.123,382.108L443.411,383.552C440.529,384.124 437.587,384.638 434.666,385.08ZM372.778,384.542C369.872,384.05 366.939,383.485 364.06,382.861L364.373,381.421C367.23,382.041 370.14,382.602 373.024,383.089L372.778,384.542ZM452.077,381.625L451.723,380.195C454.568,379.493 457.429,378.716 460.226,377.888L460.645,379.3C457.826,380.135 454.944,380.917 452.077,381.625ZM355.43,380.78C352.58,380.023 349.711,379.191 346.905,378.304L347.349,376.901C350.134,377.78 352.981,378.606 355.809,379.357L355.43,380.78ZM469.097,376.583L468.613,375.192C471.373,374.234 474.15,373.198 476.867,372.112L477.414,373.48C474.677,374.573 471.879,375.617 469.097,376.583ZM338.481,375.43C335.712,374.414 332.927,373.317 330.202,372.171L330.775,370.814C333.478,371.951 336.242,373.039 338.99,374.048L338.481,375.43ZM485.561,370.005L484.95,368.665C487.601,367.462 490.266,366.178 492.871,364.848L493.542,366.16C490.917,367.499 488.232,368.793 485.561,370.005ZM322.085,368.537C319.424,367.271 316.753,365.924 314.147,364.533L314.842,363.235C317.429,364.615 320.079,365.951 322.72,367.208L322.085,368.537ZM501.339,361.951L500.608,360.673C503.151,359.224 505.689,357.701 508.151,356.146L508.939,357.39C506.458,358.957 503.901,360.492 501.339,361.951ZM306.404,360.171C303.873,358.668 301.339,357.082 298.871,355.46L299.683,354.23C302.131,355.841 304.646,357.414 307.158,358.906L306.404,360.171ZM516.324,352.485L515.48,351.279C517.874,349.608 520.263,347.859 522.581,346.08L523.479,347.248C521.144,349.04 518.736,350.803 516.324,352.485ZM291.564,350.411C289.184,348.685 286.807,346.877 284.497,345.035L285.417,343.885C287.709,345.712 290.069,347.507 292.43,349.219L291.564,350.411ZM530.39,341.69L529.439,340.564C531.671,338.684 533.892,336.725 536.041,334.74L537.042,335.821C534.877,337.821 532.639,339.795 530.39,341.69ZM277.684,339.345C275.467,337.406 273.265,335.39 271.138,333.352L272.16,332.289C274.27,334.312 276.455,336.313 278.655,338.237L277.684,339.345ZM543.421,329.655L542.371,328.621C544.428,326.539 546.463,324.385 548.418,322.219L549.514,323.204C547.544,325.387 545.494,327.557 543.421,329.655ZM264.875,327.069C262.841,324.934 260.832,322.726 258.905,320.509L260.019,319.544C261.931,321.745 263.925,323.935 265.943,326.054L264.875,327.069ZM555.307,316.482L554.168,315.547C556.026,313.289 557.856,310.958 559.608,308.62L560.788,309.501C559.024,311.858 557.18,314.207 555.307,316.482ZM253.241,313.686C251.415,311.382 249.616,309.003 247.896,306.615L249.093,305.755C250.8,308.124 252.585,310.485 254.398,312.773L253.241,313.686ZM565.945,302.277L564.726,301.45C566.37,299.032 567.981,296.543 569.513,294.052L570.77,294.823C569.225,297.333 567.602,299.841 565.945,302.277ZM242.881,299.31C241.274,296.85 239.701,294.319 238.206,291.786L239.476,291.038C240.96,293.552 242.521,296.064 244.116,298.505L242.881,299.31ZM575.247,287.154L573.957,286.442C575.372,283.884 576.748,281.257 578.046,278.633L579.368,279.286C578.06,281.929 576.674,284.576 575.247,287.154ZM233.882,284.058C232.506,281.462 231.173,278.799 229.918,276.143L231.252,275.515C232.497,278.151 233.82,280.794 235.185,283.369L233.882,284.058ZM583.122,271.235L581.772,270.644C582.947,267.965 584.075,265.22 585.126,262.488L586.502,263.016C585.444,265.769 584.306,268.535 583.122,271.235ZM226.323,268.058C225.193,265.349 224.11,262.577 223.106,259.819L224.492,259.316C225.488,262.053 226.563,264.803 227.684,267.491L226.323,268.058ZM589.499,254.646L588.099,254.183C589.02,251.415 589.888,248.585 590.68,245.771L592.1,246.17C591.302,249.005 590.426,251.857 589.499,254.646ZM220.265,251.42C219.388,248.613 218.563,245.747 217.815,242.898L219.241,242.524C219.984,245.351 220.802,248.196 221.673,250.981L220.265,251.42ZM594.306,237.582L592.869,237.248C593.529,234.41 594.133,231.512 594.663,228.635L596.114,228.901C595.579,231.801 594.971,234.721 594.306,237.582ZM215.761,234.273C215.146,231.397 214.59,228.467 214.107,225.563L215.562,225.321C216.041,228.204 216.593,231.111 217.203,233.965L215.761,234.273ZM597.519,220.149L596.058,219.949C596.454,217.065 596.789,214.124 597.053,211.208L598.522,211.34C598.256,214.28 597.918,217.243 597.519,220.149ZM212.855,216.787C212.507,213.872 212.222,210.903 212.006,207.963L213.477,207.855C213.691,210.774 213.974,213.72 214.32,216.613L212.855,216.787ZM599.123,202.497L597.65,202.431C597.781,199.513 597.848,196.553 597.848,193.635L599.322,193.635C599.322,196.576 599.255,199.557 599.123,202.497ZM211.559,199.109C211.509,197.303 211.483,195.461 211.483,193.635C211.483,192.502 211.493,191.371 211.512,190.242L212.987,190.268C212.967,191.388 212.958,192.511 212.958,193.635C212.958,195.448 212.984,197.276 213.033,199.069L211.559,199.109ZM597.837,191.581C597.806,188.661 597.709,185.702 597.547,182.785L599.018,182.703C599.182,185.643 599.28,188.624 599.311,191.565L597.837,191.581ZM213.337,181.477L211.865,181.385C212.049,178.443 212.303,175.471 212.62,172.553L214.086,172.711C213.771,175.608 213.52,178.557 213.337,181.477ZM596.857,174.015C596.562,171.112 596.196,168.175 595.768,165.285L597.227,165.07C597.658,167.982 598.027,170.942 598.324,173.867L596.857,174.015ZM215.234,163.989L213.776,163.764C214.228,160.851 214.753,157.915 215.337,155.036L216.782,155.328C216.203,158.185 215.682,161.099 215.234,163.989ZM594.28,156.615C593.717,153.743 593.083,150.851 592.393,148.021L593.826,147.673C594.521,150.525 595.16,153.438 595.727,156.332L594.28,156.615ZM218.727,146.748L217.296,146.39C218.012,143.538 218.806,140.662 219.654,137.843L221.066,138.266C220.224,141.064 219.437,143.918 218.727,146.748ZM590.112,139.523C589.29,136.719 588.391,133.899 587.441,131.139L588.835,130.66C589.793,133.441 590.699,136.284 591.528,139.109L590.112,139.523ZM223.803,129.878L222.412,129.39C223.392,126.606 224.45,123.809 225.557,121.077L226.924,121.629C225.826,124.34 224.776,127.116 223.803,129.878ZM584.385,122.887C583.31,120.177 582.158,117.458 580.961,114.804L582.306,114.199C583.512,116.874 584.673,119.614 585.756,122.345L584.385,122.887ZM230.422,113.535L229.082,112.92C230.313,110.242 231.624,107.556 232.978,104.938L234.289,105.613C232.945,108.212 231.644,110.877 230.422,113.535ZM577.168,106.882C575.848,104.283 574.45,101.678 573.012,99.141L574.295,98.415C575.745,100.972 577.153,103.597 578.483,106.217L577.168,106.882ZM238.516,97.878L237.238,97.144C238.709,94.593 240.26,92.04 241.849,89.556L243.092,90.348C241.515,92.813 239.975,95.347 238.516,97.878ZM568.505,91.594C566.946,89.117 565.315,86.65 563.655,84.26L564.866,83.421C566.539,85.829 568.183,88.315 569.753,90.811L568.505,91.594ZM248.007,83.037L246.802,82.188C248.502,79.781 250.28,77.381 252.086,75.056L253.251,75.958C251.459,78.266 249.694,80.647 248.007,83.037ZM558.473,77.152C556.696,74.828 554.846,72.518 552.972,70.285L554.102,69.339C555.99,71.589 557.855,73.917 559.646,76.259L558.473,77.152ZM258.812,69.128L257.689,68.173C259.597,65.936 261.586,63.708 263.599,61.554L264.677,62.558C262.679,64.697 260.706,66.907 258.812,69.128ZM547.162,63.673C545.181,61.521 543.126,59.387 541.055,57.332L542.095,56.287C544.182,58.358 546.252,60.508 548.248,62.677L547.162,63.673ZM270.834,56.264L269.803,55.211C271.911,53.151 274.094,51.115 276.288,49.158L277.27,50.257C275.092,52.198 272.927,54.219 270.834,56.264L270.834,56.264ZM534.666,51.272C532.495,49.306 530.254,47.367 528.004,45.509L528.945,44.374C531.211,46.246 533.47,48.2 535.657,50.182L534.666,51.272ZM283.972,44.549L283.041,43.407C285.322,41.552 287.679,39.723 290.047,37.97L290.926,39.153C288.575,40.893 286.236,42.708 283.972,44.549ZM521.086,40.053C518.744,38.291 516.334,36.563 513.923,34.916L514.755,33.701C517.185,35.36 519.613,37.101 521.973,38.876L521.086,40.053ZM298.116,34.081L297.293,32.86C299.734,31.22 302.247,29.614 304.762,28.086L305.528,29.344C303.032,30.86 300.538,32.454 298.116,34.081ZM506.531,30.112C504.039,28.572 501.48,27.071 498.925,25.649L499.642,24.363C502.217,25.795 504.796,27.308 507.307,28.86L506.531,30.112ZM313.148,24.951L312.44,23.659C315.023,22.248 317.671,20.879 320.311,19.589L320.959,20.912C318.339,22.192 315.711,23.55 313.148,24.951ZM491.119,21.539C488.496,20.234 485.808,18.973 483.13,17.791L483.727,16.444C486.425,17.635 489.134,18.906 491.778,20.221L491.119,21.539ZM328.943,17.236L328.357,15.885C331.056,14.717 333.817,13.597 336.562,12.556L337.086,13.932C334.361,14.966 331.622,16.077 328.943,17.236ZM474.974,14.413C472.244,13.356 469.449,12.347 466.668,11.415L467.137,10.019C469.94,10.958 472.756,11.975 475.507,13.041L474.974,14.413ZM345.392,10.999L344.933,9.6C347.736,8.683 350.595,7.819 353.431,7.033L353.825,8.452C351.011,9.232 348.173,10.089 345.392,10.999ZM458.252,8.81C455.439,8.009 452.571,7.264 449.726,6.594L450.064,5.161C452.931,5.836 455.822,6.587 458.657,7.393L458.252,8.81ZM362.367,6.295L362.039,4.86C364.912,4.204 367.839,3.607 370.737,3.085L370.999,4.534C368.122,5.052 365.218,5.645 362.367,6.295ZM441.106,4.773C438.234,4.235 435.309,3.756 432.412,3.35L432.616,1.892C435.536,2.302 438.484,2.784 441.378,3.326L441.106,4.773ZM379.704,3.171L379.509,1.712C382.428,1.323 385.397,0.995 388.332,0.74L388.46,2.207C385.547,2.461 382.601,2.785 379.704,3.171L379.704,3.171ZM423.661,2.326C420.756,2.053 417.8,1.842 414.873,1.701L414.945,0.23C417.893,0.373 420.872,0.585 423.799,0.86L423.661,2.326ZM397.254,1.642L397.192,0.171C399.902,0.058 402.664,0.001 405.403,0L406.07,0.001L406.066,1.474L405.403,1.473C402.685,1.473 399.943,1.53 397.254,1.642L397.254,1.642Z" style="fill:rgb(63,61,86);fill-rule:nonzero;"/>
            <path d="M358.938,127.674L358.938,176.031C358.936,176.478 358.758,176.906 358.442,177.222C358.125,177.538 357.697,177.716 357.249,177.717L356.047,177.717L356.047,429.627C356.047,436.597 353.273,443.283 348.337,448.212C343.401,453.141 336.705,455.91 329.724,455.911L172.089,455.911C168.633,455.911 165.21,455.23 162.017,453.909C158.824,452.588 155.923,450.652 153.479,448.211C151.036,445.77 149.097,442.873 147.775,439.684C146.453,436.495 145.773,433.078 145.773,429.627L145.773,186.552L144.903,186.552C144.588,186.552 144.285,186.428 144.061,186.206C143.837,185.984 143.71,185.682 143.709,185.367L143.709,157.845C143.709,157.689 143.74,157.534 143.8,157.389C143.86,157.244 143.948,157.113 144.059,157.002C144.17,156.891 144.301,156.803 144.446,156.743C144.591,156.683 144.746,156.653 144.903,156.653L145.773,156.653L145.773,146.286L144.896,146.286C144.565,146.285 144.247,146.152 144.014,145.918C143.78,145.683 143.649,145.365 143.65,145.035L143.65,117.889C143.651,117.559 143.782,117.243 144.016,117.01C144.249,116.777 144.566,116.645 144.896,116.645L145.773,116.645L145.773,102.494L144.881,102.494C144.736,102.494 144.592,102.465 144.458,102.41C144.323,102.355 144.201,102.273 144.099,102.171C143.996,102.068 143.915,101.946 143.859,101.812C143.803,101.678 143.775,101.534 143.775,101.389L143.775,86.576C143.775,86.282 143.891,86 144.098,85.792C144.305,85.583 144.587,85.465 144.881,85.464L145.773,85.464L145.773,55.469C145.774,48.5 148.546,41.817 153.481,36.889C158.416,31.961 165.11,29.192 172.089,29.192L329.724,29.192C336.704,29.192 343.399,31.96 348.335,36.888C353.271,41.816 356.045,48.499 356.047,55.469L356.047,125.988L357.249,125.988C357.697,125.989 358.125,126.167 358.442,126.483C358.758,126.799 358.936,127.227 358.938,127.674Z" style="fill:rgb(63,61,86);fill-rule:nonzero;"/>
            <path d="M258.501,42.671L232.886,42.671C231.851,42.671 231.012,43.509 231.012,44.542L231.012,46.753C231.012,47.786 231.851,48.624 232.886,48.624L258.501,48.624C259.536,48.624 260.375,47.786 260.375,46.753L260.375,44.542C260.375,43.509 259.536,42.671 258.501,42.671Z" style="fill:rgb(230,232,236);fill-rule:nonzero;"/>
            <path d="M268.197,49.024C270.065,49.024 271.579,47.513 271.579,45.647C271.579,43.782 270.065,42.271 268.197,42.271C266.33,42.271 264.815,43.782 264.815,45.647C264.815,47.513 266.33,49.024 268.197,49.024Z" style="fill:rgb(230,232,236);fill-rule:nonzero;"/>
            <path d="M343.442,60.667L343.442,431.806C343.44,436.227 341.68,440.467 338.548,443.593C335.416,446.719 331.17,448.474 326.742,448.475L175.846,448.475C173.652,448.478 171.479,448.05 169.452,447.214C167.424,446.377 165.582,445.15 164.031,443.601C162.479,442.053 161.249,440.214 160.411,438.19C159.572,436.166 159.142,433.996 159.145,431.806L159.145,60.667C159.145,58.477 159.577,56.308 160.416,54.285C161.255,52.262 162.486,50.423 164.036,48.875C165.587,47.326 167.428,46.098 169.455,45.26C171.481,44.422 173.653,43.991 175.846,43.991L198.43,43.991L198.43,46.884C198.43,50.526 199.879,54.019 202.458,56.594C205.037,59.169 208.535,60.615 212.182,60.615L288.924,60.615C292.571,60.615 296.068,59.169 298.647,56.594C301.226,54.019 302.675,50.526 302.675,46.884L302.675,43.991L326.742,43.991C328.935,43.99 331.107,44.421 333.134,45.259C335.16,46.097 337.002,47.325 338.552,48.874C340.103,50.422 341.334,52.261 342.173,54.284C343.012,56.308 343.443,58.477 343.442,60.667Z" style="fill:rgb(19,254,212);fill-rule:nonzero;"/>
            <rect x="166.511" y="165.657" width="171.062" height="83.197" style="fill-opacity:0.2;fill-rule:nonzero;"/>
            <rect x="434.902" y="70.68" width="171.062" height="83.197" style="fill:rgb(242,242,242);fill-rule:nonzero;"/>
            <rect x="166.511" y="291.763" width="171.062" height="83.197" style="fill:rgb(63,61,86);fill-rule:nonzero;"/>
            <path d="M319.877,104.018C328.022,104.018 334.624,97.425 334.624,89.293C334.624,81.16 328.022,74.567 319.877,74.567C311.733,74.567 305.13,81.16 305.13,89.293C305.13,97.425 311.733,104.018 319.877,104.018Z" style="fill:white;fill-rule:nonzero;"/>
            <path d="M326.513,88.819L320.351,88.819L320.351,82.666L319.403,82.666L319.403,88.819L313.241,88.819L313.241,89.766L319.403,89.766L319.403,95.919L320.351,95.919L320.351,89.766L326.513,89.766L326.513,88.819Z" style="fill:rgb(63,61,86);fill-rule:nonzero;"/>
            <rect x="415.731" y="59.637" width="171.062" height="83.197" style="fill:rgb(63,61,86);fill-rule:nonzero;"/>
            <path d="M492.094,115.496C496.572,132.025 511.911,142.262 511.911,142.262C511.911,142.262 519.988,125.7 515.51,109.171C511.032,92.642 495.694,82.406 495.694,82.406C495.694,82.406 487.616,98.968 492.094,115.496Z" style="fill:white;fill-rule:nonzero;"/>
            <path d="M498.674,111.944C510.962,123.888 512.463,142.249 512.463,142.249C512.463,142.249 494.041,141.245 481.754,129.301C469.466,117.357 467.965,98.996 467.965,98.996C467.965,98.996 486.387,100 498.674,111.944Z" style="fill:rgb(19,254,212);fill-rule:nonzero;"/>
            <path d="M235.385,348.889C239.862,365.418 255.201,375.655 255.201,375.655C255.201,375.655 263.278,359.093 258.8,342.564C254.322,326.035 238.984,315.798 238.984,315.798C238.984,315.798 230.907,332.36 235.385,348.889Z" style="fill:white;fill-rule:nonzero;"/>
            <path d="M241.965,345.337C254.253,357.281 255.754,375.642 255.754,375.642C255.754,375.642 237.332,374.637 225.045,362.693C212.757,350.75 211.256,332.389 211.256,332.389C211.256,332.389 229.678,333.393 241.965,345.337Z" style="fill:rgb(19,254,212);fill-rule:nonzero;"/>
            <path d="M276.122,348.889C271.644,365.418 256.306,375.655 256.306,375.655C256.306,375.655 248.228,359.093 252.706,342.564C257.184,326.035 272.522,315.798 272.522,315.798C272.522,315.798 280.6,332.36 276.122,348.889Z" style="fill:white;fill-rule:nonzero;"/>
            <path d="M269.541,345.337C257.254,357.281 255.753,375.642 255.753,375.642C255.753,375.642 274.174,374.637 286.462,362.693C298.749,350.75 300.25,332.389 300.25,332.389C300.25,332.389 281.829,333.393 269.541,345.337Z" style="fill:rgb(19,254,212);fill-rule:nonzero;"/>
            <rect x="124" y="455" width="482" height="1" style="fill:rgb(63,61,86);fill-rule:nonzero;"/>
            <rect x="203.378" y="152.405" width="171.062" height="83.197" style="fill:rgb(63,61,86);fill-rule:nonzero;"/>
            <rect x="288.28" y="180.93" width="1.475" height="54.786" style="fill:white;fill-rule:nonzero;"/>
            <path d="M289.018,189.414C293.303,189.414 296.777,185.945 296.777,181.666C296.777,177.388 293.303,173.919 289.018,173.919C284.733,173.919 281.259,177.388 281.259,181.666C281.259,185.945 284.733,189.414 289.018,189.414Z" style="fill:rgb(19,254,212);fill-rule:nonzero;"/>
            <path d="M289.018,214.696C289.018,214.696 287.909,190.891 265.187,193.658L289.018,214.696Z" style="fill:white;fill-rule:nonzero;"/>
            <path d="M526.483,378.726L431.594,408.368L313.556,333.993L313.551,333.987L313.164,333.749L313.1,333.707L312.162,333.119L300.923,326.058C300.945,325.867 300.971,325.682 301.008,325.502C301.18,324.63 301.579,323.817 302.164,323.147C302.368,322.906 302.591,322.683 302.832,322.48L302.837,322.48C302.943,322.39 303.054,322.3 303.171,322.215C303.288,322.125 303.41,322.04 303.537,321.961C305.71,320.505 308.986,319.886 312.4,319.701C319.773,319.351 327.108,320.939 333.673,324.306C346.942,331.007 375.461,344.193 379.909,336.115C385.74,325.529 319.477,207.489 319.477,207.489C314.022,193.488 318.014,188.914 320.516,187.475C320.59,187.432 320.664,187.39 320.733,187.353C320.998,187.217 321.273,187.1 321.555,187.004C321.702,186.95 321.853,186.906 322.006,186.871C322.046,186.86 322.086,186.851 322.128,186.845L330.917,198.511L331.049,198.686L331.521,199.316L331.664,199.506L384.945,270.214C466.581,226.28 494.677,343.79 494.677,343.79L526.483,378.726Z" style="fill:rgb(251,190,190);fill-rule:nonzero;"/>
            <path d="M331.664,199.506C331.471,199.905 331.166,200.239 330.787,200.469C330.408,200.699 329.971,200.815 329.528,200.803C329.234,200.802 328.942,200.763 328.658,200.686C326.686,200.157 324.402,197.998 322.695,195.049C321.03,192.17 320.346,189.274 320.733,187.353C320.998,187.217 321.273,187.1 321.555,187.003C321.702,186.95 321.853,186.906 322.006,186.871C321.322,188.21 321.73,191.254 323.617,194.52C325.16,197.193 327.248,199.215 328.929,199.66C329.134,199.745 329.356,199.782 329.578,199.768C329.8,199.754 330.015,199.688 330.208,199.577C330.4,199.466 330.564,199.312 330.687,199.127C330.81,198.942 330.889,198.731 330.917,198.511L331.049,198.686L331.521,199.316L331.664,199.506Z" style="fill:rgb(63,61,86);fill-rule:nonzero;"/>
            <path d="M313.164,333.749L313.1,333.707L312.162,333.119C312.167,331.611 311.022,329.139 308.493,326.656C306.357,324.576 303.876,323.21 302.164,323.147C302.368,322.906 302.591,322.683 302.832,322.48L302.837,322.48C302.943,322.39 303.055,322.3 303.171,322.215C305.479,322.895 307.57,324.165 309.236,325.899C312.013,328.625 313.54,331.732 313.164,333.749Z" style="fill:rgb(63,61,86);fill-rule:nonzero;"/>
        </g>
    </g>
</svg>
