<?xml version="1.0" standalone="no"?>
<!DOCTYPE svg PUBLIC "-//W3C//DTD SVG 20010904//EN"
 "http://www.w3.org/TR/2001/REC-SVG-20010904/DTD/svg10.dtd">
<svg version="1.0" xmlns="http://www.w3.org/2000/svg"
 width="843.000000pt" height="843.000000pt" viewBox="0 0 843.000000 843.000000"
 preserveAspectRatio="xMidYMid meet">
<metadata>
Created by potrace 1.11, written by Peter Selinger 2001-2013
</metadata>
<g transform="translate(0.000000,843.000000) scale(0.100000,-0.100000)"
fill="#000000" stroke="none">
<path d="M0 4215 l0 -4215 4215 0 4215 0 0 4208 0 4209 -892 6 c-491 4 -2388
7 -4215 7 l-3323 0 0 -4215z m4271 2170 c54 -19 115 -76 140 -130 18 -38 19
-96 19 -1400 0 -1477 -1 -1452 56 -1650 128 -447 434 -675 907 -675 272 0 472
63 634 199 124 105 215 246 277 432 68 202 66 163 66 1384 0 698 4 1122 10
1156 42 226 354 271 455 65 l26 -52 -4 -1190 -3 -1189 -27 -121 c-74 -335
-201 -581 -406 -785 -264 -265 -591 -389 -1023 -389 -439 0 -795 142 -1050
419 -193 210 -316 474 -381 821 -20 111 -21 146 -27 1098 l-5 982 -543 -785
c-299 -431 -559 -798 -578 -815 -93 -82 -242 -72 -331 22 -17 18 -178 249
-358 513 -563 825 -684 1002 -705 1026 -19 24 -19 19 -20 -1236 l0 -1260 -24
-51 c-58 -124 -199 -177 -321 -120 -28 12 -65 39 -82 59 -67 76 -63 -32 -63
1797 0 1799 -3 1710 54 1785 15 19 48 47 74 62 39 24 58 28 117 28 78 -1 130
-22 176 -72 15 -15 203 -287 419 -603 798 -1168 903 -1320 910 -1320 4 0 310
436 679 970 397 572 684 978 703 991 68 49 151 61 229 34z m3332 -525 c96 -29
137 -105 137 -259 0 -115 -11 -160 -51 -206 -47 -53 -104 -70 -239 -70 -125 0
-172 11 -221 52 -49 42 -62 78 -67 190 -9 196 37 272 181 303 52 11 209 5 260
-10z"/>
</g>
</svg>
